<svg id="SvgjsSvg1001" width="560" height="310" xmlns="http://www.w3.org/2000/svg" version="1.1" xmlns:xlink="http://www.w3.org/1999/xlink" xmlns:svgjs="http://svgjs.com/svgjs"><defs id="SvgjsDefs1002"></defs><g id="SvgjsG1008"><svg xmlns="http://www.w3.org/2000/svg" xmlns:xlink="http://www.w3.org/1999/xlink" overflow="hidden" viewBox="0 0 475 156" width="560" height="330"><defs><clipPath id="a"><path fill-rule="evenodd" d="M580 242 1090 242 1090 398 580 398Z" clip-rule="evenodd" fill="#000000" class="color000 svgShape"></path></clipPath><clipPath id="b"><path fill-rule="evenodd" d="M581 242 1090 242 1090 397 581 397Z" clip-rule="evenodd" fill="#000000" class="color000 svgShape"></path></clipPath><clipPath id="c"><path fill-rule="evenodd" d="M581 242 1090 242 1090 397 581 397Z" clip-rule="evenodd" fill="#000000" class="color000 svgShape"></path></clipPath><clipPath id="d"><path fill-rule="evenodd" d="M581 242 1090 242 1090 468 581 468Z" clip-rule="evenodd" fill="#000000" class="color000 svgShape"></path></clipPath><clipPath id="e"><path fill-rule="evenodd" d="M581 242 1090 242 1090 468 581 468Z" clip-rule="evenodd" fill="#000000" class="color000 svgShape"></path></clipPath><clipPath id="f"><path fill-rule="evenodd" d="M713 302 1055 302 1055 394 713 394Z" clip-rule="evenodd" fill="#000000" class="color000 svgShape"></path></clipPath><clipPath id="g"><path fill-rule="evenodd" d="M713 302 1055 302 1055 394 713 394Z" clip-rule="evenodd" fill="#000000" class="color000 svgShape"></path></clipPath><clipPath id="h"><path fill-rule="evenodd" d="M713 302 1055 302 1055 394 713 394Z" clip-rule="evenodd" fill="#000000" class="color000 svgShape"></path></clipPath><clipPath id="i"><path fill-rule="evenodd" d="M0 0 342 0 342 91 0 91Z" clip-rule="evenodd" fill="#000000" class="color000 svgShape"></path></clipPath><clipPath id="k"><path fill-rule="evenodd" d="M717 391 1046 391 1046 438 717 438Z" clip-rule="evenodd" fill="#000000" class="color000 svgShape"></path></clipPath><clipPath id="l"><path fill-rule="evenodd" d="M717 391 1046 391 1046 438 717 438Z" clip-rule="evenodd" fill="#000000" class="color000 svgShape"></path></clipPath><clipPath id="m"><path fill-rule="evenodd" d="M717 391 1046 391 1046 438 717 438Z" clip-rule="evenodd" fill="#000000" class="color000 svgShape"></path></clipPath><clipPath id="n"><path fill-rule="evenodd" d="M0 0 329 0 329 46 0 46Z" clip-rule="evenodd" fill="#000000" class="color000 svgShape"></path></clipPath><clipPath id="p"><path fill-rule="evenodd" d="M679.5 245.511 679.5 293.667 729.5 293.667 729.5 245.511ZM581 242 1090 242 1090 467.727 581 467.727Z" clip-rule="evenodd" fill="#000000" class="color000 svgShape"></path></clipPath><clipPath id="q"><path fill-rule="evenodd" d="M581 242 1090 242 1090 468 581 468Z" clip-rule="evenodd" fill="#000000" class="color000 svgShape"></path></clipPath><clipPath id="r"><path fill-rule="evenodd" d="M581 242 1090 242 1090 468 581 468Z" clip-rule="evenodd" fill="#000000" class="color000 svgShape"></path></clipPath><clipPath id="s"><path fill-rule="evenodd" d="M0 0 509 0 509 225 0 225Z" clip-rule="evenodd" fill="#000000" class="color000 svgShape"></path></clipPath><clipPath id="u"><path fill-rule="evenodd" d="M663.75 287.647 588.5 287.898 588.75 385.964 683.5 385.964 682.75 313.731 659.25 337.809 659.25 362.889 611.75 362.639 611.75 311.474 640.75 311.474ZM581 242 1090 242 1090 467.727 581 467.727Z" clip-rule="evenodd" fill="#000000" class="color000 svgShape"></path></clipPath><clipPath id="v"><path fill-rule="evenodd" d="M581 242 1090 242 1090 468 581 468Z" clip-rule="evenodd" fill="#000000" class="color000 svgShape"></path></clipPath><clipPath id="w"><path fill-rule="evenodd" d="M581 242 1090 242 1090 468 581 468Z" clip-rule="evenodd" fill="#000000" class="color000 svgShape"></path></clipPath><clipPath id="x"><path fill-rule="evenodd" d="M0 0 509 0 509 225 0 225Z" clip-rule="evenodd" fill="#000000" class="color000 svgShape"></path></clipPath><clipPath id="z"><path fill-rule="evenodd" d="M664.5 262.566 664.5 311.725 714.5 311.725 714.5 262.566ZM581 242 1090 242 1090 467.727 581 467.727Z" clip-rule="evenodd" fill="#000000" class="color000 svgShape"></path></clipPath><clipPath id="A"><path fill-rule="evenodd" d="M581 242 1090 242 1090 468 581 468Z" clip-rule="evenodd" fill="#000000" class="color000 svgShape"></path></clipPath><clipPath id="B"><path fill-rule="evenodd" d="M581 242 1090 242 1090 468 581 468Z" clip-rule="evenodd" fill="#000000" class="color000 svgShape"></path></clipPath><clipPath id="C"><path fill-rule="evenodd" d="M0 0 509 0 509 225 0 225Z" clip-rule="evenodd" fill="#000000" class="color000 svgShape"></path></clipPath></defs><g clip-path="url(#a)" transform="translate(-580 -242)" fill="#000000" class="color000 svgShape"><g clip-path="url(#b)" fill="#000000" class="color000 svgShape"><g clip-path="url(#c)" fill="#000000" class="color000 svgShape"><g clip-path="url(#d)" fill="#000000" class="color000 svgShape"><g clip-path="url(#e)" fill="#000000" class="color000 svgShape"><g clip-path="url(#f)" fill="#000000" class="color000 svgShape"><g clip-path="url(#g)" fill="#000000" class="color000 svgShape"><g clip-path="url(#h)" fill="#000000" class="color000 svgShape"><g clip-path="url(#i)" transform="matrix(1 0 0 1.00323 713 302.194)" fill="#000000" class="color000 svgShape"><use width="100%" height="100%" xlink:href="#j"></use></g></g></g></g><g clip-path="url(#k)" fill="#000000" class="color000 svgShape"><g clip-path="url(#l)" fill="#000000" class="color000 svgShape"><g clip-path="url(#m)" fill="#000000" class="color000 svgShape"><g clip-path="url(#n)" transform="matrix(1 0 0 1.00323 717 391.481)" fill="#000000" class="color000 svgShape"><use width="100%" height="100%" xlink:href="#o"></use></g></g></g></g><path fill="#ffffff" d="M4.83984-42.2334 17.9189-42.2334 17.9189 0 4.83984 0ZM27.4077-42.2334 39.5938-42.2334 55.4961-18.8678 55.4961-42.2334 67.7974-42.2334 67.7974 0 55.4961 0 39.6802-23.1891 39.6802 0 27.4077 0ZM72.1729-42.2334 85.8151-42.2334 95.3206-11.8403 104.705-42.2334 117.95-42.2334 102.268 0 88.1229 0ZM122.292-42.2334 157.266-42.2334 157.266-33.2163 135.372-33.2163 135.372-26.5039 155.682-26.5039 155.682-17.8901 135.372-17.8901 135.372-9.56445 157.9-9.56445 157.9 0 122.292 0ZM165.494 0 165.494-42.2334 187.245-42.2334C191.278-42.2334 194.36-41.8877 196.492-41.1963 198.624-40.5049 200.343-39.2229 201.649-37.3503 202.955-35.4778 203.608-33.1971 203.608-30.5083 203.608-28.1652 203.108-26.1438 202.109-24.4441 201.11-22.7444 199.736-21.3664 197.987-20.3101 196.873-19.6379 195.345-19.0809 193.404-18.6392 194.958-18.12 196.091-17.601 196.801-17.0821 197.281-16.7361 197.977-15.996 198.888-14.8619 199.8-13.7277 200.409-12.853 200.716-12.2378L207.036 0 192.29 0 185.314-12.9063C184.431-14.5771 183.644-15.6623 182.952-16.1616 182.011-16.8146 180.945-17.1411 179.754-17.1411L178.602-17.1411 178.602 0ZM178.602-25.1211 184.104-25.1211C184.7-25.1211 185.852-25.3132 187.562-25.6973 188.426-25.8701 189.132-26.3118 189.679-27.0225 190.226-27.7331 190.5-28.5493 190.5-29.4712 190.5-30.8348 190.068-31.8815 189.204-32.6113 188.339-33.3411 186.716-33.7061 184.335-33.7061L178.602-33.7061ZM211.264-42.2334 232.957-42.2334C237.681-42.2334 241.22-41.1099 243.573-38.8628 245.925-36.6157 247.102-33.418 247.102-29.2695 247.102-25.0059 245.82-21.6737 243.256-19.2729 240.692-16.8722 236.778-15.6719 231.516-15.6719L224.372-15.6719 224.372 0 211.264 0ZM224.372-24.228 227.569-24.228C230.085-24.228 231.852-24.665 232.87-25.5388 233.888-26.4127 234.397-27.5314 234.397-28.895 234.397-30.2202 233.955-31.3438 233.072-32.2656 232.188-33.1875 230.527-33.6484 228.088-33.6484L224.372-33.6484ZM275.286-6.97168 260.47-6.97168 258.411 0 245.086 0 260.96-42.2334 275.195-42.2334 291.065 0 277.399 0ZM272.579-16.104 267.917-31.2861 263.304-16.104ZM293.045-13.9722 305.462-14.75C305.731-12.7334 306.278-11.1969 307.104-10.1406 308.448-8.43131 310.369-7.57666 312.866-7.57666 314.729-7.57666 316.164-8.01359 317.173-8.88745 318.181-9.76131 318.685-10.7744 318.685-11.9268 318.685-13.0215 318.205-14.001 317.245-14.8652 316.284-15.7295 314.056-16.5457 310.561-17.314 304.838-18.6007 300.757-20.3101 298.317-22.4419 295.859-24.5737 294.63-27.2913 294.63-30.5947 294.63-32.765 295.259-34.8152 296.517-36.7454 297.775-38.6755 299.667-40.1928 302.192-41.2971 304.718-42.4014 308.18-42.9536 312.578-42.9536 317.974-42.9536 322.089-41.9501 324.922-39.9431 327.755-37.9361 329.44-34.7432 329.978-30.3643L317.677-29.644C317.35-31.5454 316.664-32.9282 315.617-33.7925 314.57-34.6567 313.125-35.0889 311.281-35.0889 309.764-35.0889 308.621-34.7672 307.853-34.1238 307.085-33.4804 306.701-32.6978 306.701-31.7759 306.701-31.1037 307.018-30.4987 307.651-29.9609 308.266-29.404 309.726-28.8854 312.03-28.4053 317.734-27.1761 321.82-25.9325 324.288-24.6746 326.756-23.4166 328.552-21.8561 329.676-19.9932 330.799-18.1302 331.361-16.0464 331.361-13.7417 331.361-11.0337 330.612-8.53695 329.114-6.25146 327.616-3.96598 325.522-2.23267 322.833-1.05151 320.145 0.129639 316.755 0.720215 312.664 0.720215 305.481 0.720215 300.507-0.662598 297.741-3.42822 294.976-6.19385 293.41-9.7085 293.045-13.9722Z" transform="matrix(1 0 0 1.00323 713.025 351.352)" class="color203864 svgShape"></path><path fill="#ffffff" d="M2.26758-2.05664 2.26758-17.2837C2.26758-18.0747 2.44775-18.668 2.80811-19.0635 3.16846-19.459 3.63428-19.6567 4.20557-19.6567 4.79443-19.6567 5.27124-19.4612 5.63599-19.0701 6.00073-18.679 6.1831-18.0835 6.18311-17.2837L6.18311-2.05664C6.1831-1.25684 6.00073-0.65918 5.63599-0.263672 5.27124 0.131836 4.79443 0.32959 4.20557 0.32959 3.64307 0.32959 3.17944 0.129639 2.8147-0.270264 2.44995-0.670166 2.26758-1.26563 2.26758-2.05664ZM15.2114-17.3101 22.7393-5.91943 22.7393-17.4155C22.7393-18.1626 22.8997-18.7229 23.2205-19.0964 23.5413-19.47 23.9741-19.6567 24.519-19.6567 25.0815-19.6567 25.5254-19.47 25.8506-19.0964 26.1758-18.7229 26.3384-18.1626 26.3384-17.4155L26.3384-2.21484C26.3384-0.518555 25.6353 0.32959 24.229 0.32959 23.8774 0.32959 23.561 0.279053 23.2798 0.177979 22.9985 0.0769043 22.7349-0.0834961 22.4888-0.303223 22.2427-0.522949 22.0142-0.780029 21.8032-1.07446 21.5923-1.3689 21.3813-1.66992 21.1704-1.97754L13.8271-13.2363 13.8271-1.91162C13.8271-1.17334 13.6558-0.615234 13.313-0.237305 12.9702 0.140625 12.5308 0.32959 11.9946 0.32959 11.4409 0.32959 10.9971 0.138428 10.6631-0.243896 10.3291-0.626221 10.1621-1.18213 10.1621-1.91162L10.1621-16.8223C10.1621-17.4551 10.2324-17.9517 10.373-18.312 10.54-18.7075 10.8169-19.0305 11.2036-19.281 11.5903-19.5315 12.0078-19.6567 12.4561-19.6567 12.8076-19.6567 13.1086-19.5996 13.3591-19.4854 13.6096-19.3711 13.8293-19.2173 14.0183-19.0239 14.2073-18.8306 14.4006-18.5801 14.5984-18.2725 14.7961-17.9648 15.0005-17.644 15.2114-17.3101ZM48.7622-7.85742 48.7622-4.15283C48.7622-3.66064 48.7139-3.26733 48.6172-2.9729 48.5205-2.67847 48.3425-2.4126 48.0833-2.17529 47.824-1.93799 47.4922-1.70947 47.0879-1.48975 45.9189-0.856934 44.7939-0.395508 43.7129-0.105469 42.6318 0.18457 41.4541 0.32959 40.1797 0.32959 38.6943 0.32959 37.3408 0.101074 36.1191-0.355957 34.8975-0.812988 33.856-1.47656 32.9946-2.34668 32.1333-3.2168 31.4719-4.27148 31.0105-5.51074 30.5491-6.75 30.3184-8.13428 30.3184-9.66357 30.3184-11.1665 30.5425-12.542 30.9907-13.79 31.439-15.0381 32.0981-16.0972 32.9683-16.9673 33.8384-17.8374 34.8975-18.5032 36.1455-18.9646 37.3936-19.426 38.8086-19.6567 40.3906-19.6567 41.6914-19.6567 42.8428-19.4832 43.8447-19.136 44.8467-18.7888 45.6597-18.3516 46.2837-17.8242 46.9077-17.2969 47.3779-16.7388 47.6943-16.1499 48.0107-15.561 48.1689-15.0381 48.1689-14.5811 48.1689-14.0889 47.9866-13.6692 47.6218-13.322 47.2571-12.9749 46.8198-12.8013 46.3101-12.8013 46.0288-12.8013 45.7585-12.8672 45.4993-12.999 45.24-13.1309 45.0225-13.3154 44.8467-13.5527 44.3633-14.3086 43.9546-14.8799 43.6206-15.2666 43.2866-15.6533 42.8362-15.9785 42.2693-16.2422 41.7024-16.5059 40.9795-16.6377 40.1006-16.6377 39.1953-16.6377 38.3867-16.4817 37.6748-16.1697 36.9629-15.8577 36.3542-15.405 35.8489-14.8118 35.3435-14.2185 34.9568-13.4912 34.6887-12.6299 34.4207-11.7686 34.2866-10.8149 34.2866-9.76904 34.2866-7.50146 34.8074-5.75684 35.8489-4.53516 36.8904-3.31348 38.3428-2.70264 40.2061-2.70264 41.1113-2.70264 41.9617-2.82129 42.7571-3.05859 43.5525-3.2959 44.3589-3.63428 45.1763-4.07373L45.1763-7.21143 42.144-7.21143C41.4146-7.21143 40.863-7.32129 40.4895-7.54102 40.116-7.76074 39.9292-8.13428 39.9292-8.66162 39.9292-9.09229 40.0852-9.44824 40.3972-9.72949 40.7092-10.0107 41.1333-10.1514 41.6694-10.1514L46.1123-10.1514C46.6572-10.1514 47.1187-10.103 47.4966-10.0063 47.8745-9.90967 48.1799-9.69434 48.4128-9.36035 48.6458-9.02637 48.7622-8.52539 48.7622-7.85742ZM64.8447-16.3081 56.0249-16.3081 56.0249-11.562 64.146-11.562C64.7437-11.562 65.1897-11.428 65.4841-11.1599 65.7786-10.8918 65.9258-10.5381 65.9258-10.0986 65.9258-9.65918 65.7808-9.30103 65.4907-9.02417 65.2007-8.74731 64.7524-8.60889 64.146-8.60889L56.0249-8.60889 56.0249-3.11133 65.1479-3.11133C65.7632-3.11133 66.2268-2.96851 66.5388-2.68286 66.8508-2.39722 67.0068-2.01709 67.0068-1.54248 67.0068-1.08545 66.8508-0.714111 66.5388-0.428467 66.2268-0.142822 65.7632 0 65.1479 0L54.5088 0C53.6563 0 53.0432-0.188965 52.6697-0.566895 52.2961-0.944824 52.1094-1.55566 52.1094-2.39941L52.1094-16.9277C52.1094-17.4902 52.1929-17.9495 52.3599-18.3054 52.5269-18.6614 52.7883-18.9207 53.1443-19.0833 53.5002-19.2458 53.9551-19.3271 54.5088-19.3271L64.8447-19.3271C65.4688-19.3271 65.9324-19.1887 66.2356-18.9119 66.5388-18.635 66.6904-18.2725 66.6904-17.8242 66.6904-17.3672 66.5388-17.0002 66.2356-16.7234 65.9324-16.4465 65.4688-16.3081 64.8447-16.3081ZM75.2114-17.3101 82.7393-5.91943 82.7393-17.4155C82.7393-18.1626 82.8997-18.7229 83.2205-19.0964 83.5413-19.47 83.9741-19.6567 84.519-19.6567 85.0815-19.6567 85.5254-19.47 85.8506-19.0964 86.1758-18.7229 86.3384-18.1626 86.3384-17.4155L86.3384-2.21484C86.3384-0.518555 85.6353 0.32959 84.229 0.32959 83.8774 0.32959 83.561 0.279053 83.2798 0.177979 82.9985 0.0769043 82.7349-0.0834961 82.4888-0.303223 82.2427-0.522949 82.0142-0.780029 81.8032-1.07446 81.5923-1.3689 81.3813-1.66992 81.1704-1.97754L73.8271-13.2363 73.8271-1.91162C73.8271-1.17334 73.6558-0.615234 73.313-0.237305 72.9702 0.140625 72.5308 0.32959 71.9946 0.32959 71.4409 0.32959 70.9971 0.138428 70.6631-0.243896 70.3291-0.626221 70.1621-1.18213 70.1621-1.91162L70.1621-16.8223C70.1621-17.4551 70.2324-17.9517 70.373-18.312 70.54-18.7075 70.8169-19.0305 71.2036-19.281 71.5903-19.5315 72.0078-19.6567 72.4561-19.6567 72.8076-19.6567 73.1086-19.5996 73.3591-19.4854 73.6096-19.3711 73.8293-19.2173 74.0183-19.0239 74.2073-18.8306 74.4006-18.5801 74.5984-18.2725 74.7961-17.9648 75.0005-17.644 75.2114-17.3101ZM91.2676-2.05664 91.2676-17.2837C91.2676-18.0747 91.4478-18.668 91.8081-19.0635 92.1685-19.459 92.6343-19.6567 93.2056-19.6567 93.7944-19.6567 94.2712-19.4612 94.636-19.0701 95.0007-18.679 95.1831-18.0835 95.1831-17.2837L95.1831-2.05664C95.1831-1.25684 95.0007-0.65918 94.636-0.263672 94.2712 0.131836 93.7944 0.32959 93.2056 0.32959 92.6431 0.32959 92.1794 0.129639 91.8147-0.270264 91.45-0.670166 91.2676-1.26563 91.2676-2.05664ZM111.845-16.3081 103.025-16.3081 103.025-11.562 111.146-11.562C111.744-11.562 112.19-11.428 112.484-11.1599 112.779-10.8918 112.926-10.5381 112.926-10.0986 112.926-9.65918 112.781-9.30103 112.491-9.02417 112.201-8.74731 111.752-8.60889 111.146-8.60889L103.025-8.60889 103.025-3.11133 112.148-3.11133C112.763-3.11133 113.227-2.96851 113.539-2.68286 113.851-2.39722 114.007-2.01709 114.007-1.54248 114.007-1.08545 113.851-0.714111 113.539-0.428467 113.227-0.142822 112.763 0 112.148 0L101.509 0C100.656 0 100.043-0.188965 99.6697-0.566895 99.2961-0.944824 99.1094-1.55566 99.1094-2.39941L99.1094-16.9277C99.1094-17.4902 99.1929-17.9495 99.3599-18.3054 99.5269-18.6614 99.7883-18.9207 100.144-19.0833 100.5-19.2458 100.955-19.3271 101.509-19.3271L111.845-19.3271C112.469-19.3271 112.932-19.1887 113.236-18.9119 113.539-18.635 113.69-18.2725 113.69-17.8242 113.69-17.3672 113.539-17.0002 113.236-16.7234 112.932-16.4465 112.469-16.3081 111.845-16.3081ZM122.37-8.26611 120.999-8.26611 120.999-2.05664C120.999-1.23926 120.818-0.637207 120.458-0.250488 120.098 0.13623 119.627 0.32959 119.047 0.32959 118.423 0.32959 117.94 0.127441 117.597-0.276855 117.254-0.681152 117.083-1.27441 117.083-2.05664L117.083-16.9277C117.083-17.7715 117.272-18.3823 117.65-18.7603 118.028-19.1382 118.639-19.3271 119.482-19.3271L125.85-19.3271C126.729-19.3271 127.48-19.2898 128.104-19.2151 128.729-19.1404 129.291-18.9888 129.792-18.7603 130.398-18.5054 130.935-18.1406 131.4-17.666 131.866-17.1914 132.22-16.6399 132.462-16.0115 132.703-15.3831 132.824-14.7173 132.824-14.0142 132.824-12.5728 132.418-11.4214 131.605-10.5601 130.792-9.69873 129.559-9.08789 127.907-8.72754 128.601-8.3584 129.265-7.81348 129.897-7.09277 130.53-6.37207 131.095-5.60522 131.592-4.79224 132.088-3.97925 132.475-3.24536 132.752-2.59058 133.029-1.93579 133.167-1.48535 133.167-1.23926 133.167-0.984375 133.086-0.731689 132.923-0.481201 132.76-0.230713 132.539-0.032959 132.257 0.112061 131.976 0.25708 131.651 0.32959 131.282 0.32959 130.842 0.32959 130.473 0.226318 130.174 0.0197754 129.875-0.186768 129.618-0.448242 129.403-0.764648 129.188-1.08105 128.896-1.54688 128.526-2.16211L126.958-4.77246C126.395-5.73047 125.892-6.45996 125.448-6.96094 125.004-7.46191 124.554-7.80469 124.097-7.98926 123.64-8.17383 123.064-8.26611 122.37-8.26611ZM124.611-16.3872 120.999-16.3872 120.999-11.0742 124.505-11.0742C125.446-11.0742 126.237-11.1555 126.878-11.3181 127.52-11.4807 128.01-11.7576 128.348-12.1487 128.687-12.5398 128.856-13.0781 128.856-13.7637 128.856-14.2998 128.72-14.7722 128.447-15.1809 128.175-15.5896 127.797-15.895 127.313-16.0972 126.856-16.2905 125.956-16.3872 124.611-16.3872ZM136.268-2.05664 136.268-17.2837C136.268-18.0747 136.448-18.668 136.808-19.0635 137.168-19.459 137.634-19.6567 138.206-19.6567 138.794-19.6567 139.271-19.4612 139.636-19.0701 140.001-18.679 140.183-18.0835 140.183-17.2837L140.183-2.05664C140.183-1.25684 140.001-0.65918 139.636-0.263672 139.271 0.131836 138.794 0.32959 138.206 0.32959 137.643 0.32959 137.179 0.129639 136.815-0.270264 136.45-0.670166 136.268-1.26563 136.268-2.05664ZM138.838-24.3633 140.618-24.3633C141.066-24.3633 141.291-24.2974 141.291-24.1655 141.291-24.0952 141.044-23.8096 140.552-23.3086 140.06-22.8076 139.563-22.3286 139.063-21.8716 138.562-21.4146 138.214-21.1377 138.021-21.041 137.52-20.7861 136.984-20.6587 136.413-20.6587 136.035-20.6587 135.846-20.7686 135.846-20.9883 135.846-21.1377 135.96-21.397 136.188-21.7661L136.782-22.8735C137.125-23.5151 137.423-23.9238 137.678-24.0996 137.933-24.2754 138.32-24.3633 138.838-24.3633ZM156.476-2.18848 155.553-4.61426 147.695-4.61426 146.772-2.13574C146.412-1.16895 146.104-0.516357 145.85-0.177979 145.595 0.1604 145.177 0.32959 144.597 0.32959 144.105 0.32959 143.67 0.149414 143.292-0.210938 142.914-0.571289 142.725-0.97998 142.725-1.43701 142.725-1.70068 142.769-1.97314 142.857-2.25439 142.945-2.53564 143.09-2.92676 143.292-3.42773L148.236-15.9785C148.376-16.3389 148.546-16.7717 148.743-17.2771 148.941-17.7825 149.152-18.2021 149.376-18.5361 149.6-18.8701 149.895-19.1404 150.26-19.3469 150.624-19.5535 151.075-19.6567 151.611-19.6567 152.156-19.6567 152.611-19.5535 152.975-19.3469 153.34-19.1404 153.635-18.8745 153.859-18.5493 154.083-18.2241 154.272-17.8748 154.426-17.5012 154.579-17.1277 154.775-16.6289 155.012-16.0049L160.062-3.5332C160.457-2.58398 160.655-1.89404 160.655-1.46338 160.655-1.01514 160.468-0.604248 160.094-0.230713 159.721 0.142822 159.271 0.32959 158.743 0.32959 158.436 0.32959 158.172 0.274658 157.952 0.164795 157.732 0.0549316 157.548-0.0944824 157.398-0.283447 157.249-0.472412 157.089-0.762451 156.917-1.15356 156.746-1.54468 156.599-1.88965 156.476-2.18848ZM148.724-7.5542 154.498-7.5542 151.584-15.5303Z" transform="matrix(1 0 0 1.00323 779.152 383.456)" class="color203864 svgShape"></path><g clip-path="url(#p)" fill="#000000" class="color000 svgShape"><g clip-path="url(#q)" fill="#000000" class="color000 svgShape"><g clip-path="url(#r)" fill="#000000" class="color000 svgShape"><g clip-path="url(#s)" transform="matrix(1 0 0 1.00323 581 242)" fill="#000000" class="color000 svgShape"><use width="100%" height="100%" xlink:href="#t"></use></g></g></g></g><path fill="#f3b800" stroke="#404040" stroke-miterlimit="8" stroke-width="1.333" d="M660.5 50.5001 710.5 50.5001 710.5 98.5001 660.5 98.5001Z" transform="matrix(1 0 0 1.00323 19 194.848)" class="colorF3B800 svgShape colorStroke404040 svgStroke"></path><g clip-path="url(#u)" fill="#000000" class="color000 svgShape"><g clip-path="url(#v)" fill="#000000" class="color000 svgShape"><g clip-path="url(#w)" fill="#000000" class="color000 svgShape"><g clip-path="url(#x)" transform="matrix(1 0 0 1.00323 581 242)" fill="#000000" class="color000 svgShape"><use width="100%" height="100%" xlink:href="#y"></use></g></g></g></g><path fill="#639d05" fill-rule="evenodd" stroke="#404040" stroke-miterlimit="8" d="M644.75 92.5001 569.5 92.75 569.75 190.5 664.5 190.5 663.75 118.5 640.25 142.5 640.25 167.5 592.75 167.25 592.75 116.25 621.75 116.25 644.75 92.5001Z" transform="matrix(1 0 0 1.00323 19 194.848)" class="color639D05 svgShape colorStroke404040 svgStroke"></path><g clip-path="url(#z)" fill="#000000" class="color000 svgShape"><g clip-path="url(#A)" fill="#000000" class="color000 svgShape"><g clip-path="url(#B)" fill="#000000" class="color000 svgShape"><g clip-path="url(#C)" transform="matrix(1 0 0 1.00323 581 242)" fill="#000000" class="color000 svgShape"><use width="100%" height="100%" xlink:href="#D"></use></g></g></g></g><path fill="#e6002c" stroke="#404040" stroke-miterlimit="8" stroke-width="1.333" d="M645.5 67.5001 695.5 67.5001 695.5 116.5 645.5 116.5Z" transform="matrix(1 0 0 1.00323 19 194.848)" class="colorE6002C svgShape colorStroke404040 svgStroke"></path></g></g></g></g></g></svg></g></svg>