<?xml version="1.0" encoding="UTF-8"?>
<svg width="123px" height="31px" viewBox="0 0 123 31" version="1.1" xmlns="http://www.w3.org/2000/svg" xmlns:xlink="http://www.w3.org/1999/xlink">
    <!-- Generator: Sketch 52.3 (67297) - http://www.bohemiancoding.com/sketch -->
    <title>logo</title>
    <desc>Created with Sketch.</desc>
    <g id="⚙️-Symbols" stroke="none" stroke-width="1" fill="none" fill-rule="evenodd">
        <g id="Elements/Navigation-1" transform="translate(0.000000, -4.000000)">
            <g id="Logo/Nettra" transform="translate(0.000000, 4.000000)">
                <path d="M3.05268148,30.0326808 C1.04971852,29.4454692 -0.0726518519,27.4149692 0.546607407,25.4995269 C1.02186667,24.0264308 2.38779259,23.0523154 3.90245926,22.9432192 L4.16675556,21.8755077 C4.37179259,21.0522192 4.58453333,20.2307192 4.82512593,19.4163731 C5.06394074,18.6044115 5.32408889,17.7972192 5.61979259,16.9995654 C5.76379259,16.6007385 5.90838519,16.2007192 6.07075556,15.8066615 C6.23016296,15.4114115 6.37831111,15.0137769 6.54838519,14.6215077 C7.20616296,13.0476615 7.92912593,11.4905077 8.72616296,9.95839231 C9.12616296,9.19173846 9.55934815,8.43462308 9.99845926,7.68048846 C10.2947556,7.19700769 10.5993481,6.71591154 10.9163852,6.23839231 C10.5709037,4.73191154 10.0357926,3.75481538 9.87282963,2.89575769 C9.22216296,-0.549415385 13.4829037,0.409796154 13.4829037,0.409796154 C15.8526815,1.28614231 15.9623111,3.55927692 13.9451259,4.67408462 C12.9863111,5.20406538 12.2994963,5.84671923 11.840237,6.37908462 C11.824237,6.98835385 11.7916444,7.59166154 11.7472,8.19318077 C11.6648296,9.05223846 11.5771259,9.91010385 11.4568296,10.7572385 C11.2120889,12.4538923 10.8920889,14.1272962 10.5080889,15.7810269 C10.4156444,16.19595 10.3054222,16.6055077 10.2034963,17.0168538 C10.1063111,17.4299885 9.98838519,17.8377577 9.87401481,18.2467192 C9.64705185,19.0628538 9.38631111,19.8706423 9.10364444,20.6712769 C9.06394074,20.7833538 9.02127407,20.8936423 8.98157037,21.0051231 C9.48823704,20.7726231 9.99786667,20.5431038 10.5080889,20.3147769 C11.5557926,19.8450077 12.6040889,19.3758346 13.6286815,18.8732769 C14.6538667,18.3701231 15.6553481,17.8312 16.6319407,17.2571038 C17.6109037,16.6842 18.5614222,16.0701615 19.4793481,15.4084308 C20.3984593,14.7455077 21.2826074,14.0337 22.1507556,13.2986423 C22.8873481,12.6852 23.6156444,12.0610269 24.3569778,11.4589115 C24.3830519,11.31345 24.4180148,11.1679885 24.4654222,11.0225269 C25.0834963,9.10648846 27.2097185,8.02864231 29.2120889,8.61466154 C31.2132741,9.20068077 32.336237,11.2311808 31.718163,13.1484115 C31.2832,14.4951231 30.1027556,15.4251231 28.7439407,15.6576231 C28.4434963,16.4165269 28.1306074,17.1742385 27.7987556,17.9253923 C27.3134222,19.0312577 26.7877926,20.1252 26.2200889,21.2072192 C25.9350519,21.7485269 25.6411259,22.28745 25.3276444,22.8192192 C25.0129778,23.3509885 24.6947556,23.8827577 24.3344593,24.4014115 C24.2674963,24.4979885 24.1306074,24.5236231 24.0310519,24.4592385 C23.9664593,24.4192962 23.9326815,24.3513346 23.9332741,24.2839692 C23.9409778,23.6615846 23.9919407,23.0511231 24.0446815,22.4442385 C24.0997926,21.8361615 24.1738667,21.2328538 24.2574222,20.6331231 C24.4269037,19.4342577 24.6378667,18.2473154 24.8891259,17.0728923 C25.056237,16.2728538 25.2440889,15.4793731 25.4432,14.6900654 C25.3359407,14.5887192 25.2328296,14.4837962 25.1386074,14.3735077 C24.5531259,14.6262769 23.9634963,14.8742769 23.3792,15.1282385 C22.3184593,15.5783346 21.2743111,16.0534692 20.2633481,16.5762962 C19.2517926,17.1009115 18.272237,17.6714308 17.3217185,18.2854692 C16.3706074,18.8971231 15.4420148,19.54395 14.5371259,20.2277385 C13.6334222,20.9115269 12.752237,21.6281038 11.8692741,22.3446808 C10.9874963,23.0600654 10.1057185,23.7760462 9.20023704,24.4562577 C8.74216296,24.8133538 8.27460741,25.1543538 7.8029037,25.4905846 C8.01742222,26.16245 8.03164444,26.9010846 7.79994074,27.6230269 C7.18127407,29.5402577 5.05564444,30.6187 3.05268148,30.0326808 Z M23.9218963,25.1237712 C25.6516741,25.7085981 26.5950815,27.4201558 26.0267852,28.9409442 C25.4596741,30.4623288 23.596563,31.2206365 21.8656,30.633425 C20.134637,30.0480019 19.1936,28.3388288 19.7595259,26.8162519 C20.3278222,25.2942712 22.1909333,24.5371558 23.9218963,25.1237712 Z" id="Combined-Shape" fill="#3CC980"></path>
                <path d="M58.76,26 L55.7,26 L55.7,16.73 C55.7,14.36 54.35,13.34 52.64,13.34 C50.93,13.34 49.49,14.39 49.49,16.73 L49.49,26 L46.43,26 L46.43,10.79 L49.43,10.79 L49.43,12.32 C50.48,11.18 51.95,10.61 53.48,10.61 C55.04,10.61 56.33,11.12 57.23,11.99 C58.4,13.13 58.76,14.57 58.76,16.28 L58.76,26 Z M75.2149999,19.28 L65.3449999,19.28 C65.3449999,21.89 66.7249999,23.54 69.2149999,23.54 C70.9249999,23.54 71.8249999,23.06 72.9049999,21.98 L74.8549999,23.81 C73.2949999,25.37 71.8249999,26.18 69.1549999,26.18 C65.3449999,26.18 62.3149999,24.17 62.3149999,18.38 C62.3149999,13.46 64.8649999,10.61 68.7649999,10.61 C72.8449999,10.61 75.2149999,13.61 75.2149999,17.93 L75.2149999,19.28 Z M72.1849999,17.15 C72.1549999,16.22 72.0649999,15.77 71.7649999,15.08 C71.2849999,13.94 70.2049999,13.16 68.7649999,13.16 C67.3249999,13.16 66.2149999,13.94 65.7349999,15.08 C65.4349999,15.77 65.3749999,16.22 65.3449999,17.15 L72.1849999,17.15 Z M85.2499998,26 L83.4199998,26 C80.5699998,26 79.2499998,23.96 79.2499998,21.77 L79.2499998,13.4 L77.5099998,13.4 L77.5099998,11.06 L79.2499998,11.06 L79.2499998,6.44 L82.3099998,6.44 L82.3099998,11.06 L85.2499998,11.06 L85.2499998,13.4 L82.3099998,13.4 L82.3099998,21.62 C82.3099998,22.73 82.8499998,23.39 83.9899998,23.39 L85.2499998,23.39 L85.2499998,26 Z M95.1349997,26 L93.3049997,26 C90.4549997,26 89.1349997,23.96 89.1349997,21.77 L89.1349997,13.4 L87.3949997,13.4 L87.3949997,11.06 L89.1349997,11.06 L89.1349997,6.44 L92.1949997,6.44 L92.1949997,11.06 L95.1349997,11.06 L95.1349997,13.4 L92.1949997,13.4 L92.1949997,21.62 C92.1949997,22.73 92.7349997,23.39 93.8749997,23.39 L95.1349997,23.39 L95.1349997,26 Z M109.34,12.05 L107.03,14.36 C106.34,13.67 105.8,13.34 104.75,13.34 C103.1,13.34 101.72,14.66 101.72,16.76 L101.72,26 L98.6599996,26 L98.6599996,10.79 L101.66,10.79 L101.66,12.44 C102.44,11.36 104,10.61 105.71,10.61 C107.18,10.61 108.29,11 109.34,12.05 Z M122.344999,26 L119.344999,26 L119.344999,24.62 C118.234999,25.73 117.184999,26.18 115.294999,26.18 C113.404999,26.18 112.144999,25.73 111.214999,24.8 C110.434999,23.99 110.014999,22.82 110.014999,21.53 C110.014999,18.98 111.784999,17.15 115.264999,17.15 L119.284999,17.15 L119.284999,16.07 C119.284999,14.15 118.324999,13.22 115.954999,13.22 C114.274999,13.22 113.464999,13.61 112.624999,14.69 L110.614999,12.8 C112.054999,11.12 113.554999,10.61 116.074999,10.61 C120.244999,10.61 122.344999,12.38 122.344999,15.83 L122.344999,26 Z M119.284999,20.51 L119.284999,19.28 L115.714999,19.28 C113.914999,19.28 112.984999,20.09 112.984999,21.47 C112.984999,22.85 113.854999,23.63 115.774999,23.63 C116.944999,23.63 117.814999,23.54 118.624999,22.76 C119.074999,22.31 119.284999,21.59 119.284999,20.51 Z" id="nettra" fill="#2D2D2D"></path>
            </g>
        </g>
    </g>
</svg>