<?xml version="1.0" encoding="utf-8"?>
<!-- Generator: Adobe Illustrator 16.0.0, SVG Export Plug-In . SVG Version: 6.00 Build 0)  -->
<!DOCTYPE svg PUBLIC "-//W3C//DTD SVG 1.1//EN" "http://www.w3.org/Graphics/SVG/1.1/DTD/svg11.dtd">
<svg version="1.1" id="Layer_1" xmlns="http://www.w3.org/2000/svg" xmlns:xlink="http://www.w3.org/1999/xlink" x="0px" y="0px"
	 width="320px" height="320px" viewBox="0 0 320 320" enable-background="new 0 0 320 320" xml:space="preserve">
<g>
	<g>
		<path fill="#DF1F26" d="M159.278,5.198v0.004c-86.187,0.181-156,70.101-156,156.329c0,86.341,69.993,156.334,156.333,156.334
			c84.443,0,153.235-66.953,156.22-150.667h0.113v-162H159.278z"/>
		<g>
			<circle fill="#027C41" cx="45.782" cy="54.159" r="32.048"/>
			<path fill="#71AC44" d="M26.403,79.68c5.382,4.093,12.095,6.526,19.378,6.526c17.7,0,32.048-14.348,32.048-32.048
				c0-7.952-2.902-15.221-7.697-20.822C52.578,45.612,37.662,61.398,26.403,79.68z"/>
		</g>
	</g>
	<path fill="#FFFFFF" d="M251.361,99.72c-13.912,0-26.686,5.196-36.75,13.863v-75.95h-42.397V221.72h42.397v-9.863
		c10.064,8.666,22.838,13.863,36.75,13.863c32.446,0,58.75-28.207,58.75-63C310.111,127.925,283.808,99.72,251.361,99.72z
		 M240.861,189.72c-14.498,0-26.25-11.753-26.25-26.25c0-14.498,11.752-26.25,26.25-26.25s26.25,11.752,26.25,26.25
		C267.111,177.967,255.359,189.72,240.861,189.72z"/>
	<path fill="#FFFFFF" d="M163.611,184.058c-5.332,5.639-12.877,9.162-21.25,9.162c-16.154,0-29.25-13.096-29.25-29.25
		s13.096-29.25,29.25-29.25c8.373,0,15.918,3.523,21.25,9.162v-36.231c-8.869-4.737-18.994-7.431-29.751-7.431
		c-34.932,0-63.25,28.318-63.25,63.25s28.318,63.25,63.25,63.25c10.757,0,20.882-2.693,29.751-7.431V184.058z"/>
	<rect x="22.611" y="104.72" fill="#FFFFFF" width="41.5" height="119"/>
</g>
</svg>
