<svg class="highcharts-root" style="font-family:Helvetica,Arial,sans-serif;font-size:1rem" xmlns="http://www.w3.org/2000/svg" width="600" height="400" aria-label="Interactive chart" aria-hidden="false"><defs aria-hidden="true"><clipPath id="a"><path fill="none" d="M0 0h311v292H0z"/></clipPath></defs><rect fill="#fff" class="highcharts-background" filter="none" width="600" height="400" rx="0" ry="0" aria-hidden="true"/><path fill="none" class="highcharts-plot-background" filter="none" aria-hidden="true" d="M78 63h311v292H78z"/><g class="highcharts-grid highcharts-xaxis-grid" data-z-index="1" aria-hidden="true" fill="none"><path data-z-index="1" class="highcharts-grid-line" d="M80.5 63v292m61-292v292m61-292v292m61-292v292m61-292v292m61-292v292"/></g><g class="highcharts-grid highcharts-yaxis-grid" data-z-index="1" aria-hidden="true" fill="none" stroke="#e6e6e6"><path data-z-index="1" class="highcharts-grid-line" d="M78 355.5h311m-311-73h311m-311-73h311m-311-73h311m-311-74h311"/></g><path fill="none" class="highcharts-plot-border" data-z-index="1" aria-hidden="true" d="M78 63h311v292H78z"/><g class="highcharts-axis highcharts-xaxis" data-z-index="2" aria-hidden="true" fill="none" stroke="#333"><path class="highcharts-tick" d="M80.5 355v10m61-10v10m61-10v10m61-10v10m61-10v10m61-10v10"/><path class="highcharts-axis-line" data-z-index="7" d="M78 355.5h311"/></g><g class="highcharts-axis highcharts-yaxis" data-z-index="2" aria-hidden="true"><text x="25.242" data-z-index="7" text-anchor="middle" transform="rotate(-90 25.242 209)" class="highcharts-axis-title" style="color:#666;font-size:.8em;fill:#666" y="209">Number of Employees</text><path fill="none" class="highcharts-axis-line" data-z-index="7" d="M78 63v292"/></g><g class="highcharts-series-group" data-z-index="3" filter="none" aria-hidden="false"><g class="highcharts-series highcharts-series-0 highcharts-line-series highcharts-color-0" data-z-index=".1" clip-path="url(#a)" aria-hidden="true" fill="none" stroke-linejoin="round" stroke-linecap="round" transform="translate(78 63)"><path d="m3.049 227.856 30.49-6.894 30.49-24.103 30.49-24.326 30.49-44.262 30.491-44.15 30.49-42.56 30.49 9.285 30.49 14.625 30.49-9.194 30.491 9.992" class="highcharts-graph" data-z-index="1" stroke="#2caffe" stroke-width="2" filter="none"/><path d="m3.049 227.856 30.49-6.894 30.49-24.103 30.49-24.326 30.49-44.262 30.491-44.15 30.49-42.56 30.49 9.285 30.49 14.625 30.49-9.194 30.491 9.992" data-z-index="2" class="highcharts-tracker-line" stroke="rgba(192,192,192,0.0001)" stroke-width="22"/></g><g class="highcharts-markers highcharts-series-0 highcharts-line-series highcharts-color-0 highcharts-tracker" data-z-index=".1" aria-hidden="false" tabindex="-1" aria-label="Installation &amp; Developers, line 1 of 5 with 11 data points." style="outline:0" fill="#2caffe"><path d="M3 232a4 4 0 1 1 .004 0Z" class="highcharts-point highcharts-color-0" tabindex="-1" aria-label="x, 2010, 43,934. Installation &amp; Developers." style="outline:0" transform="translate(78 63)"/><path d="M33 225a4 4 0 1 1 .004 0Z" class="highcharts-point highcharts-color-0" tabindex="-1" aria-label="x, 2011, 48,656. Installation &amp; Developers." style="outline:0" transform="translate(78 63)"/><path d="M64 201a4 4 0 1 1 .004 0Z" class="highcharts-point highcharts-color-0" tabindex="-1" aria-label="x, 2012, 65,165. Installation &amp; Developers." style="outline:0" transform="translate(78 63)"/><path d="M94 177a4 4 0 1 1 .004 0Z" class="highcharts-point highcharts-color-0" tabindex="-1" aria-label="x, 2013, 81,827. Installation &amp; Developers." style="outline:0" transform="translate(78 63)"/><path d="M125 132a4 4 0 1 1 .004 0Z" class="highcharts-point highcharts-color-0" tabindex="-1" aria-label="x, 2014, 112,143. Installation &amp; Developers." style="outline:0" transform="translate(78 63)"/><path d="M155 88a4 4 0 1 1 .004 0Z" class="highcharts-point highcharts-color-0" tabindex="-1" aria-label="x, 2015, 142,383. Installation &amp; Developers." style="outline:0" transform="translate(78 63)"/><path d="M185 46a4 4 0 1 1 .004 0Z" class="highcharts-point highcharts-color-0" tabindex="-1" aria-label="x, 2016, 171,533. Installation &amp; Developers." style="outline:0" transform="translate(78 63)"/><path d="M216 55a4 4 0 1 1 .004 0Z" class="highcharts-point highcharts-color-0" tabindex="-1" aria-label="x, 2017, 165,174. Installation &amp; Developers." style="outline:0" transform="translate(78 63)"/><path d="M246 69a4 4 0 1 1 .004 0Z" class="highcharts-point highcharts-color-0" tabindex="-1" aria-label="x, 2018, 155,157. Installation &amp; Developers." style="outline:0" transform="translate(78 63)"/><path d="M277 60a4 4 0 1 1 .004 0Z" class="highcharts-point highcharts-color-0" tabindex="-1" aria-label="x, 2019, 161,454. Installation &amp; Developers." style="outline:0" transform="translate(78 63)"/><path d="M307 70a4 4 0 1 1 .004 0Z" class="highcharts-point highcharts-color-0" tabindex="-1" aria-label="x, 2020, 154,610. Installation &amp; Developers." style="outline:0" transform="translate(78 63)"/></g><g class="highcharts-series highcharts-series-1 highcharts-line-series highcharts-color-1" data-z-index=".1" clip-path="url(#a)" aria-hidden="true" fill="none" stroke-linejoin="round" stroke-linecap="round" transform="translate(78 63)"><path d="m3.049 255.623 30.49-19.017 30.49 11.97 30.49-.158 30.49-3.853 30.491 3.223 30.49-11.445 30.49 1.805 30.49 4.612 30.49-.755 30.491 4.662" class="highcharts-graph" data-z-index="1" stroke="#544fc5" stroke-width="2" filter="none"/><path d="m3.049 255.623 30.49-19.017 30.49 11.97 30.49-.158 30.49-3.853 30.491 3.223 30.49-11.445 30.49 1.805 30.49 4.612 30.49-.755 30.491 4.662" data-z-index="2" class="highcharts-tracker-line" stroke="rgba(192,192,192,0.0001)" stroke-width="22"/></g><g class="highcharts-markers highcharts-series-1 highcharts-line-series highcharts-color-1 highcharts-tracker" data-z-index=".1" aria-hidden="false" tabindex="-1" aria-label="Manufacturing, line 2 of 5 with 11 data points." style="outline:0" fill="#544fc5"><path d="m3 252 4 4-4 4-4-4Z" class="highcharts-point highcharts-color-1" tabindex="-1" aria-label="x, 2010, 24,916. Manufacturing." style="outline:0" transform="translate(78 63)"/><path d="m33 233 4 4-4 4-4-4Z" class="highcharts-point highcharts-color-1" tabindex="-1" aria-label="x, 2011, 37,941. Manufacturing." style="outline:0" transform="translate(78 63)"/><path d="m64 245 4 4-4 4-4-4Z" class="highcharts-point highcharts-color-1" tabindex="-1" aria-label="x, 2012, 29,742. Manufacturing." style="outline:0" transform="translate(78 63)"/><path d="m94 244 4 4-4 4-4-4Z" class="highcharts-point highcharts-color-1" tabindex="-1" aria-label="x, 2013, 29,851. Manufacturing." style="outline:0" transform="translate(78 63)"/><path d="m125 241 4 4-4 4-4-4Z" class="highcharts-point highcharts-color-1" tabindex="-1" aria-label="x, 2014, 32,490. Manufacturing." style="outline:0" transform="translate(78 63)"/><path d="m155 244 4 4-4 4-4-4Z" class="highcharts-point highcharts-color-1" tabindex="-1" aria-label="x, 2015, 30,282. Manufacturing." style="outline:0" transform="translate(78 63)"/><path d="m185 232 4 4-4 4-4-4Z" class="highcharts-point highcharts-color-1" tabindex="-1" aria-label="x, 2016, 38,121. Manufacturing." style="outline:0" transform="translate(78 63)"/><path d="m216 234 4 4-4 4-4-4Z" class="highcharts-point highcharts-color-1" tabindex="-1" aria-label="x, 2017, 36,885. Manufacturing." style="outline:0" transform="translate(78 63)"/><path d="m246 239 4 4-4 4-4-4Z" class="highcharts-point highcharts-color-1" tabindex="-1" aria-label="x, 2018, 33,726. Manufacturing." style="outline:0" transform="translate(78 63)"/><path d="m277 238 4 4-4 4-4-4Z" class="highcharts-point highcharts-color-1" tabindex="-1" aria-label="x, 2019, 34,243. Manufacturing." style="outline:0" transform="translate(78 63)"/><path d="m307 243 4 4-4 4-4-4Z" class="highcharts-point highcharts-color-1" tabindex="-1" aria-label="x, 2020, 31,050. Manufacturing." style="outline:0" transform="translate(78 63)"/></g><g class="highcharts-series highcharts-series-2 highcharts-line-series highcharts-color-2" data-z-index=".1" clip-path="url(#a)" aria-hidden="true" fill="none" stroke-linejoin="round" stroke-linecap="round" transform="translate(78 63)"><path d="m3.049 274.854 30.49-26.654 30.49 20.433 30.49-5.499 30.49-.604 30.491-6.12 30.49-11.345 30.49 1.803 30.49 2.437 30.49.044 30.491 5.183" class="highcharts-graph" data-z-index="1" stroke="#00e272" stroke-width="2" filter="none"/><path d="m3.049 274.854 30.49-26.654 30.49 20.433 30.49-5.499 30.49-.604 30.491-6.12 30.49-11.345 30.49 1.803 30.49 2.437 30.49.044 30.491 5.183" data-z-index="2" class="highcharts-tracker-line" stroke="rgba(192,192,192,0.0001)" stroke-width="22"/></g><g class="highcharts-markers highcharts-series-2 highcharts-line-series highcharts-color-2 highcharts-tracker" data-z-index=".1" aria-hidden="false" tabindex="-1" aria-label="Sales &amp; Distribution, line 3 of 5 with 11 data points." style="outline:0" fill="#00e272"><path d="M-1 271h8v8h-8Z" class="highcharts-point highcharts-color-2" tabindex="-1" aria-label="x, 2010, 11,744. Sales &amp; Distribution." style="outline:0" transform="translate(78 63)"/><path d="M29 244h8v8h-8Z" class="highcharts-point highcharts-color-2" tabindex="-1" aria-label="x, 2011, 30,000. Sales &amp; Distribution." style="outline:0" transform="translate(78 63)"/><path d="M60 265h8v8h-8Z" class="highcharts-point highcharts-color-2" tabindex="-1" aria-label="x, 2012, 16,005. Sales &amp; Distribution." style="outline:0" transform="translate(78 63)"/><path d="M90 259h8v8h-8Z" class="highcharts-point highcharts-color-2" tabindex="-1" aria-label="x, 2013, 19,771. Sales &amp; Distribution." style="outline:0" transform="translate(78 63)"/><path d="M121 259h8v8h-8Z" class="highcharts-point highcharts-color-2" tabindex="-1" aria-label="x, 2014, 20,185. Sales &amp; Distribution." style="outline:0" transform="translate(78 63)"/><path d="M151 252h8v8h-8Z" class="highcharts-point highcharts-color-2" tabindex="-1" aria-label="x, 2015, 24,377. Sales &amp; Distribution." style="outline:0" transform="translate(78 63)"/><path d="M181 241h8v8h-8Z" class="highcharts-point highcharts-color-2" tabindex="-1" aria-label="x, 2016, 32,147. Sales &amp; Distribution." style="outline:0" transform="translate(78 63)"/><path d="M212 243h8v8h-8Z" class="highcharts-point highcharts-color-2" tabindex="-1" aria-label="x, 2017, 30,912. Sales &amp; Distribution." style="outline:0" transform="translate(78 63)"/><path d="M242 245h8v8h-8Z" class="highcharts-point highcharts-color-2" tabindex="-1" aria-label="x, 2018, 29,243. Sales &amp; Distribution." style="outline:0" transform="translate(78 63)"/><path d="M273 245h8v8h-8Z" class="highcharts-point highcharts-color-2" tabindex="-1" aria-label="x, 2019, 29,213. Sales &amp; Distribution." style="outline:0" transform="translate(78 63)"/><path d="M303 251h8v8h-8Z" class="highcharts-point highcharts-color-2" tabindex="-1" aria-label="x, 2020, 25,663. Sales &amp; Distribution." style="outline:0" transform="translate(78 63)"/></g><g class="highcharts-series highcharts-series-3 highcharts-line-series highcharts-color-3" data-z-index=".1" clip-path="url(#a)" aria-hidden="true" fill="none" stroke-linejoin="round" stroke-linecap="round" transform="translate(78 63)"><path d="m246.97 275.7 30.49-.078 30.491 1.666" class="highcharts-graph" data-z-index="1" stroke="#fe6a35" stroke-width="2" filter="none"/><path d="m246.97 275.7 30.49-.078 30.491 1.666" data-z-index="2" class="highcharts-tracker-line" stroke="rgba(192,192,192,0.0001)" stroke-width="22"/></g><g class="highcharts-markers highcharts-series-3 highcharts-line-series highcharts-color-3 highcharts-tracker" data-z-index=".1" aria-hidden="false" tabindex="-1" aria-label="Operations &amp; Maintenance, line 4 of 5 with 11 data points." style="outline:0" fill="#fe6a35"><path d="m246 272 4 8h-8Z" class="highcharts-point highcharts-color-3" tabindex="-1" aria-label="x, 2018, 11,164. Operations &amp; Maintenance." style="outline:0" transform="translate(78 63)"/><path d="m277 272 4 8h-8Z" class="highcharts-point highcharts-color-3" tabindex="-1" aria-label="x, 2019, 11,218. Operations &amp; Maintenance." style="outline:0" transform="translate(78 63)"/><path d="m307 273 4 8h-8Z" class="highcharts-point highcharts-color-3" tabindex="-1" aria-label="x, 2020, 10,077. Operations &amp; Maintenance." style="outline:0" transform="translate(78 63)"/></g><g class="highcharts-series highcharts-series-4 highcharts-line-series highcharts-color-4" data-z-index=".1" clip-path="url(#a)" aria-hidden="true" fill="none" stroke-linejoin="round" stroke-linecap="round" transform="translate(78 63)"><path d="m3.049 260.014 30.49 23.886 30.49-3.733 30.49-4.59 30.49 3.3 30.491-4.128 30.49-9.429 30.49 1.422 30.49 6.2 30.49 1.675 30.491 2.676" class="highcharts-graph" data-z-index="1" stroke="#6b8abc" stroke-width="2" filter="none"/><path d="m3.049 260.014 30.49 23.886 30.49-3.733 30.49-4.59 30.49 3.3 30.491-4.128 30.49-9.429 30.49 1.422 30.49 6.2 30.49 1.675 30.491 2.676" data-z-index="2" class="highcharts-tracker-line" stroke="rgba(192,192,192,0.0001)" stroke-width="22"/></g><g class="highcharts-markers highcharts-series-4 highcharts-line-series highcharts-color-4 highcharts-tracker" data-z-index=".1" aria-hidden="false" tabindex="-1" aria-label="Other, line 5 of 5 with 11 data points." style="outline:0" fill="#6b8abc"><path d="M-1 256h8l-4 8Z" class="highcharts-point highcharts-color-4" tabindex="-1" aria-label="x, 2010, 21,908. Other." style="outline:0" transform="translate(78 63)"/><path d="M29 280h8l-4 8Z" class="highcharts-point highcharts-color-4" tabindex="-1" aria-label="x, 2011, 5,548. Other." style="outline:0" transform="translate(78 63)"/><path d="M60 276h8l-4 8Z" class="highcharts-point highcharts-color-4" tabindex="-1" aria-label="x, 2012, 8,105. Other." style="outline:0" transform="translate(78 63)"/><path d="M90 272h8l-4 8Z" class="highcharts-point highcharts-color-4" tabindex="-1" aria-label="x, 2013, 11,248. Other." style="outline:0" transform="translate(78 63)"/><path d="M121 275h8l-4 8Z" class="highcharts-point highcharts-color-4" tabindex="-1" aria-label="x, 2014, 8,989. Other." style="outline:0" transform="translate(78 63)"/><path d="M151 271h8l-4 8Z" class="highcharts-point highcharts-color-4" tabindex="-1" aria-label="x, 2015, 11,816. Other." style="outline:0" transform="translate(78 63)"/><path d="M181 261h8l-4 8Z" class="highcharts-point highcharts-color-4" tabindex="-1" aria-label="x, 2016, 18,274. Other." style="outline:0" transform="translate(78 63)"/><path d="M212 263h8l-4 8Z" class="highcharts-point highcharts-color-4" tabindex="-1" aria-label="x, 2017, 17,300. Other." style="outline:0" transform="translate(78 63)"/><path d="M242 269h8l-4 8Z" class="highcharts-point highcharts-color-4" tabindex="-1" aria-label="x, 2018, 13,053. Other." style="outline:0" transform="translate(78 63)"/><path d="M273 271h8l-4 8Z" class="highcharts-point highcharts-color-4" tabindex="-1" aria-label="x, 2019, 11,906. Other." style="outline:0" transform="translate(78 63)"/><path d="M303 273h8l-4 8Z" class="highcharts-point highcharts-color-4" tabindex="-1" aria-label="x, 2020, 10,073. Other." style="outline:0" transform="translate(78 63)"/></g></g><g data-z-index="3" aria-hidden="true"><text data-z-index="1" y="12" style="color:#2caffe;font-size:.8em;font-weight:700;fill:#2caffe" transform="translate(216 180)" class="highcharts-label highcharts-series-label highcharts-series-label-0 highcharts-color-0">Installation &amp; Developers</text></g><g data-z-index="3" aria-hidden="true"><text data-z-index="1" y="12" style="color:#544fc5;font-size:.8em;font-weight:700;fill:#544fc5" transform="translate(115 282)" class="highcharts-label highcharts-series-label highcharts-series-label-1 highcharts-color-1">Manufacturing</text></g><g data-z-index="3" aria-hidden="true"><text data-z-index="1" y="12" style="color:#6b8abc;font-size:.8em;font-weight:700;fill:#6b8abc" transform="translate(334 321)" class="highcharts-label highcharts-series-label highcharts-series-label-4 highcharts-color-4">Other</text></g><text x="10" class="highcharts-title" data-z-index="4" style="font-size:1.2em;color:#333;font-weight:700;fill:#333" y="25" aria-hidden="true">U.S Solar Employment Growth</text><text x="10" class="highcharts-subtitle" data-z-index="4" style="color:#666;font-size:.8em;fill:#666" y="47" aria-hidden="true">By Job Category. Source: <a target="_blank"><tspan>IREC</tspan></a>.</text><g class="highcharts-legend highcharts-no-tooltip" data-z-index="7" transform="translate(401 145)" aria-hidden="true"><rect fill="none" class="highcharts-legend-box" rx="0" ry="0" filter="none" width="188" height="106"/><g data-z-index="1"><g class="highcharts-legend-item highcharts-line-series highcharts-color-0 highcharts-series-0" data-z-index="1"><path fill="none" class="highcharts-graph" stroke-width="2" stroke-linecap="round" d="M9 16h14" stroke="#2caffe"/><path fill="#2caffe" d="M16 20a4 4 0 1 1 .004 0Z" class="highcharts-point"/><text x="21" data-z-index="2" style="color:#333;cursor:pointer;font-size:.8em;text-decoration:none;fill:#333" y="17" transform="translate(8 3)">Installation &amp; Developers</text></g><g class="highcharts-legend-item highcharts-line-series highcharts-color-1 highcharts-series-1" data-z-index="1"><path fill="none" class="highcharts-graph" stroke-width="2" stroke-linecap="round" d="M9 35h14" stroke="#544fc5"/><path fill="#544fc5" d="m16 31 4 4-4 4-4-4Z" class="highcharts-point"/><text x="21" y="17" data-z-index="2" style="color:#333;cursor:pointer;font-size:.8em;text-decoration:none;fill:#333" transform="translate(8 22)">Manufacturing</text></g><g class="highcharts-legend-item highcharts-line-series highcharts-color-2 highcharts-series-2" data-z-index="1"><path fill="none" class="highcharts-graph" stroke-width="2" stroke-linecap="round" d="M9 54h14" stroke="#00e272"/><path fill="#00e272" d="M12 50h8v8h-8Z" class="highcharts-point"/><text x="21" y="17" data-z-index="2" style="color:#333;cursor:pointer;font-size:.8em;text-decoration:none;fill:#333" transform="translate(8 41)">Sales &amp; Distribution</text></g><g class="highcharts-legend-item highcharts-line-series highcharts-color-3 highcharts-series-3" data-z-index="1"><path fill="none" class="highcharts-graph" stroke-width="2" stroke-linecap="round" d="M9 73h14" stroke="#fe6a35"/><path fill="#fe6a35" d="m16 69 4 8h-8Z" class="highcharts-point"/><text x="21" y="17" data-z-index="2" style="color:#333;cursor:pointer;font-size:.8em;text-decoration:none;fill:#333" transform="translate(8 60)">Operations &amp; Maintenance</text></g><g class="highcharts-legend-item highcharts-line-series highcharts-color-4 highcharts-series-4" data-z-index="1"><path fill="none" class="highcharts-graph" stroke-width="2" stroke-linecap="round" d="M9 92h14" stroke="#6b8abc"/><path fill="#6b8abc" d="M12 88h8l-4 8Z" class="highcharts-point"/><text x="21" y="17" data-z-index="2" style="color:#333;cursor:pointer;font-size:.8em;text-decoration:none;fill:#333" transform="translate(8 79)">Other</text></g></g></g><g class="highcharts-axis-labels highcharts-xaxis-labels" data-z-index="7" aria-hidden="true" text-anchor="middle"><text x="81.049" style="color:#333;cursor:default;font-size:.8em;fill:#333" y="382">2010</text><text x="142.029" style="color:#333;cursor:default;font-size:.8em;fill:#333" y="382">2012</text><text x="203.01" style="color:#333;cursor:default;font-size:.8em;fill:#333" y="382">2014</text><text x="263.99" style="color:#333;cursor:default;font-size:.8em;fill:#333" y="382">2016</text><text x="324.971" style="color:#333;cursor:default;font-size:.8em;fill:#333" y="382">2018</text><text x="385.951" style="color:#333;cursor:default;font-size:.8em;fill:#333" y="382">2020</text></g><g class="highcharts-axis-labels highcharts-yaxis-labels" data-z-index="7" aria-hidden="true" text-anchor="end"><text x="63" style="color:#333;cursor:default;font-size:.8em;fill:#333" y="360">0</text><text x="63" style="color:#333;cursor:default;font-size:.8em;fill:#333" y="287">50k</text><text x="63" style="color:#333;cursor:default;font-size:.8em;fill:#333" y="214">100k</text><text x="63" style="color:#333;cursor:default;font-size:.8em;fill:#333" y="141">150k</text><text x="63" style="color:#333;cursor:default;font-size:.8em;fill:#333" y="68">200k</text></g></svg>